<?xml version="1.0" encoding="UTF-8"?>
<svg id="Layer_2" data-name="Layer 2" xmlns="http://www.w3.org/2000/svg" viewBox="0 0 1164.59 286.33">
  <defs>
    <style>
      .cls-1 {
        fill: #c1272d;
      }

      .cls-2 {
        fill: #fff;
      }

      .cls-3 {
        fill: #fcfcfb;
      }
    </style>
  </defs>
  <g id="Layer_1-2" data-name="Layer 1">
    <rect class="cls-1" width="287.59" height="286.33" rx="48.77" ry="48.77"/>
    <path class="cls-3" d="M229.32,241.48c-16.47-4.01-32.67-6.97-49.35-8.75-5.97-.64-12.5-.5-14.17-6.46-.85-3.03-1.19-5.97-1.4-9.12-.64-9.31-1.42-18.35-3.02-27.58-3.15-14.64-9.96-29.14-18.32-41.47-3.92,6.86-7.03,13.2-10.1,19.99-4.8,11.29-7.66,22.85-8.57,35.07l-1.49,17.75c-.56,6.67-3.29,10.33-10.17,11.03-8.59.88-16.84,1.58-25.41,3.11-10.81,1.92-21.2,4.2-31.81,6.83-1.8.45-3.51.59-5.34.42-2.37-.23-3.58-2.3-3.19-4.73l6.03-37.51,4.24-33.97c.71-5.72,5.78-6.05,10.5-6.57,6.49-.71,12.68-1.44,19.1-2.95,12.37-2.91,23.87-7.69,35.09-13.53l10.07-5.25c-1.95-1.42-3.82-2.53-5.98-3.58-9.98-4.85-20.02-9.01-30.56-12.62-6.91-2.36-13.72-3.62-20.86-4.84-3.37-.58-6.55-1.13-9.81-2.06-3.76-1.07-6.38-3.87-6.94-7.95l-4.87-35.47-3.75-25.59c-.07-.45.21-.94.41-1.15.25-.26.98-.63,1.65-.58l63.54,4.74c4.97.37,7.3,2.33,8.14,7.05.58,3.23.9,6.26,1.31,9.52,1.18,9.33,2.69,18.33,4.99,27.47,3.53,11.71,7.14,23.21,14.39,33.53,9.65-16.6,14.54-31.01,17.55-49.78l3.63-22.65c.43-2.69,2.52-4.35,5.11-4.7,6.99-.93,13.73-1.38,20.82-1.89l37.64-2.73c1.71-.12,8.8-.88,9.2.03.16.36.35.87.27,1.49l-7.15,51.58c-1.06,7.61-.81,16.77-9.33,18.19-21.89,3.65-33.58,6.89-53.81,16.21-4.21,1.94-8.25,3.48-12.21,5.89,13.34,8.73,31.43,15.34,46.61,18.58,5.74,1.22,11.23,1.83,17.06,2.44,4.18.44,9.57,1.12,10.5,6.13,1.93,10.31,2.81,20.49,4.47,30.92l6.57,41.32c.43,2.68-1.18,4.8-3.87,5.06-2.46.23-4.7-.19-7.41-.85Z"/>
    <path class="cls-2" d="M363.6,151.57l38.62-114.17h31.57l38.62,114.17h-25.9l-7.66-23.29h-41.83l-7.66,23.29h-25.75ZM403.59,107.59h28.66l-17.47-53.94h6.44l-17.62,53.94Z"/>
    <path class="cls-2" d="M482.51,151.57v-83.67h21.45v20.08l-1.53-2.91c1.84-7.05,4.88-11.82,9.12-14.33,4.24-2.5,9.27-3.75,15.09-3.75h4.9v19.92h-7.2c-5.62,0-10.17,1.71-13.64,5.13-3.47,3.42-5.21,8.25-5.21,14.48v45.05h-22.99Z"/>
    <path class="cls-2" d="M574.46,153.41c-9.2,0-17.19-2.17-23.98-6.51-6.8-4.34-11.42-10.19-13.87-17.55l16.86-7.97c2.14,4.5,5.06,8.02,8.73,10.57,3.68,2.55,7.76,3.83,12.26,3.83,3.27,0,5.77-.66,7.51-1.99,1.74-1.33,2.6-3.17,2.6-5.52,0-1.23-.31-2.27-.92-3.14-.61-.87-1.53-1.66-2.76-2.38-1.23-.71-2.76-1.33-4.6-1.84l-14.25-3.98c-6.85-1.94-12.11-5.08-15.78-9.42-3.68-4.34-5.52-9.47-5.52-15.4,0-5.21,1.33-9.75,3.98-13.64,2.66-3.88,6.38-6.92,11.19-9.12,4.8-2.2,10.32-3.29,16.55-3.29,8.17,0,15.35,1.92,21.53,5.75,6.18,3.83,10.55,9.22,13.1,16.17l-17.01,7.97c-1.23-3.47-3.45-6.26-6.67-8.35-3.22-2.09-6.87-3.14-10.96-3.14-2.96,0-5.29.61-6.97,1.84-1.69,1.23-2.53,2.91-2.53,5.06,0,1.13.31,2.15.92,3.07.61.92,1.61,1.74,2.99,2.45,1.38.72,3.09,1.38,5.13,1.99l13.33,3.98c6.95,2.04,12.26,5.13,15.94,9.27s5.52,9.22,5.52,15.25c0,5.21-1.36,9.76-4.06,13.64-2.71,3.88-6.46,6.92-11.26,9.12-4.8,2.2-10.47,3.29-17.01,3.29Z"/>
    <path class="cls-1" d="M649.85,151.57V37.41h22.99l42.75,56.7h-10.73l41.53-56.7h22.99v114.17h-23.75V63.61l9.5,2.15-43.98,56.7h-3.06l-42.45-56.7,7.97-2.15v87.96h-23.75Z"/>
    <path class="cls-1" d="M817.95,153.41c-6.74,0-12.49-1.46-17.24-4.37-4.75-2.91-8.35-6.97-10.8-12.18-2.45-5.21-3.68-11.29-3.68-18.24v-50.72h22.99v48.88c0,3.17.64,5.95,1.92,8.35,1.28,2.4,3.09,4.27,5.44,5.59,2.35,1.33,5,1.99,7.97,1.99s5.75-.66,8.04-1.99c2.3-1.33,4.08-3.19,5.36-5.59,1.28-2.4,1.92-5.18,1.92-8.35v-48.88h22.99v83.67h-21.45v-16.55l1.23,3.68c-1.94,5.01-5.08,8.71-9.42,11.11-4.34,2.4-9.42,3.6-15.25,3.6Z"/>
    <path class="cls-1" d="M912.5,153.41c-9.2,0-17.19-2.17-23.98-6.51-6.8-4.34-11.42-10.19-13.87-17.55l16.86-7.97c2.14,4.5,5.06,8.02,8.73,10.57,3.68,2.55,7.76,3.83,12.26,3.83,3.27,0,5.77-.66,7.51-1.99,1.74-1.33,2.6-3.17,2.6-5.52,0-1.23-.31-2.27-.92-3.14-.61-.87-1.53-1.66-2.76-2.38-1.23-.71-2.76-1.33-4.6-1.84l-14.25-3.98c-6.85-1.94-12.11-5.08-15.78-9.42-3.68-4.34-5.52-9.47-5.52-15.4,0-5.21,1.33-9.75,3.98-13.64,2.66-3.88,6.38-6.92,11.19-9.12,4.8-2.2,10.32-3.29,16.55-3.29,8.17,0,15.35,1.92,21.53,5.75,6.18,3.83,10.55,9.22,13.1,16.17l-17.01,7.97c-1.23-3.47-3.45-6.26-6.67-8.35-3.22-2.09-6.87-3.14-10.96-3.14-2.96,0-5.29.61-6.97,1.84-1.69,1.23-2.53,2.91-2.53,5.06,0,1.13.31,2.15.92,3.07.61.92,1.61,1.74,2.99,2.45,1.38.72,3.09,1.38,5.13,1.99l13.33,3.98c6.95,2.04,12.26,5.13,15.94,9.27s5.52,9.22,5.52,15.25c0,5.21-1.36,9.76-4.06,13.64-2.71,3.88-6.46,6.92-11.26,9.12-4.8,2.2-10.47,3.29-17.01,3.29Z"/>
    <path class="cls-1" d="M958.63,60.39v-22.99h22.99v22.99h-22.99ZM958.63,151.57v-83.67h22.99v83.67h-22.99Z"/>
    <path class="cls-1" d="M1039.54,153.41c-8.38,0-15.91-1.92-22.6-5.75-6.69-3.83-12.01-9.07-15.94-15.71-3.93-6.64-5.9-14.1-5.9-22.37s1.94-15.71,5.82-22.3c3.88-6.59,9.2-11.77,15.94-15.55,6.74-3.78,14.3-5.67,22.68-5.67,6.23,0,12,1.07,17.32,3.22,5.31,2.15,9.86,5.13,13.64,8.96,3.78,3.83,6.49,8.35,8.12,13.56l-19.92,8.58c-1.43-4.19-3.86-7.51-7.28-9.96-3.42-2.45-7.38-3.68-11.88-3.68-3.98,0-7.54.97-10.65,2.91-3.12,1.94-5.57,4.65-7.36,8.12-1.79,3.47-2.68,7.46-2.68,11.95s.89,8.48,2.68,11.95c1.79,3.47,4.24,6.18,7.36,8.12,3.12,1.94,6.67,2.91,10.65,2.91,4.6,0,8.58-1.23,11.95-3.68,3.37-2.45,5.77-5.77,7.2-9.96l19.92,8.73c-1.53,4.9-4.19,9.3-7.97,13.18-3.78,3.88-8.33,6.92-13.64,9.12-5.31,2.2-11.14,3.29-17.47,3.29Z"/>
    <path class="cls-1" d="M1118,153.41c-6.03,0-11.24-.97-15.63-2.91-4.39-1.94-7.76-4.72-10.11-8.35-2.35-3.62-3.53-7.94-3.53-12.95,0-4.7,1.07-8.86,3.22-12.49,2.15-3.63,5.44-6.67,9.88-9.12s9.98-4.19,16.63-5.21l25.59-4.14v16.86l-21.45,3.83c-3.27.61-5.77,1.66-7.51,3.14-1.74,1.48-2.61,3.6-2.61,6.36,0,2.55.97,4.55,2.91,5.98,1.94,1.43,4.34,2.15,7.2,2.15,3.78,0,7.1-.82,9.96-2.45,2.86-1.63,5.08-3.85,6.67-6.67,1.58-2.81,2.38-5.9,2.38-9.27v-21.76c0-3.17-1.25-5.82-3.75-7.97-2.5-2.15-5.9-3.22-10.19-3.22s-7.69,1.13-10.8,3.37c-3.12,2.25-5.39,5.21-6.82,8.89l-18.39-8.73c1.63-4.7,4.24-8.74,7.82-12.11,3.57-3.37,7.87-5.98,12.87-7.82,5-1.84,10.47-2.76,16.4-2.76,7.05,0,13.28,1.28,18.7,3.83,5.41,2.56,9.63,6.11,12.64,10.65,3.01,4.55,4.52,9.83,4.52,15.86v55.17h-21.45v-13.49l5.21-.92c-2.45,3.68-5.16,6.72-8.12,9.12-2.96,2.4-6.28,4.19-9.96,5.36-3.68,1.17-7.77,1.76-12.26,1.76Z"/>
    <path class="cls-2" d="M546.43,248.98l22.08-60.47h6.98l22.08,60.47h-6.82l-5.19-14.77h-27.03l-5.28,14.77h-6.82ZM560.64,228.12h22.65l-12.26-34.74h1.95l-12.34,34.74Z"/>
    <path class="cls-2" d="M638.89,249.95c-4.28,0-8.2-.77-11.77-2.31-3.57-1.54-6.67-3.71-9.29-6.49-2.63-2.79-4.67-6.07-6.13-9.86s-2.19-7.96-2.19-12.5.73-8.71,2.19-12.5c1.46-3.79,3.5-7.09,6.13-9.9,2.62-2.81,5.72-4.99,9.29-6.54,3.57-1.54,7.5-2.31,11.77-2.31s7.8.73,11.08,2.19c3.27,1.46,6.03,3.34,8.28,5.64,2.25,2.3,3.86,4.72,4.83,7.27l-6.09,2.68c-1.52-3.52-3.83-6.34-6.94-8.48-3.11-2.14-6.83-3.21-11.16-3.21s-8.39,1.06-11.85,3.17c-3.46,2.11-6.17,5.05-8.12,8.81-1.95,3.76-2.92,8.16-2.92,13.19s.97,9.36,2.92,13.15,4.65,6.72,8.12,8.81c3.46,2.08,7.41,3.12,11.85,3.12s8.05-1.05,11.16-3.17c3.11-2.11,5.42-4.92,6.94-8.44l6.09,2.68c-.97,2.49-2.58,4.88-4.83,7.18-2.25,2.3-5.01,4.18-8.28,5.64-3.28,1.46-6.97,2.19-11.08,2.19Z"/>
    <path class="cls-2" d="M676.55,248.98l22.08-60.47h6.98l22.08,60.47h-6.82l-5.19-14.77h-27.03l-5.28,14.77h-6.82ZM690.75,228.12h22.65l-12.26-34.74h1.95l-12.34,34.74Z"/>
    <path class="cls-2" d="M743.84,248.98v-60.47h19.89c6.01,0,11.23,1.23,15.67,3.69,4.44,2.46,7.87,5.95,10.31,10.47,2.44,4.52,3.65,9.86,3.65,16.03s-1.22,11.45-3.65,15.99c-2.44,4.54-5.87,8.06-10.31,10.55-4.44,2.49-9.66,3.73-15.67,3.73h-19.89ZM750.33,242.89h13.39c4.65,0,8.69-.99,12.09-2.96,3.41-1.97,6.05-4.78,7.92-8.4,1.87-3.62,2.8-7.9,2.8-12.83s-.95-9.19-2.84-12.79c-1.89-3.6-4.55-6.38-7.96-8.36-3.41-1.97-7.41-2.96-12.01-2.96h-13.39v48.3Z"/>
    <path class="cls-2" d="M812.19,248.98v-60.47h38.96v6.09h-32.47v21.02h30.85v6.09h-30.85v21.19h32.47v6.09h-38.96Z"/>
    <path class="cls-2" d="M869.98,248.98v-60.47h5.68l22.73,32.96h-3.17l22.65-32.96h5.68v60.47h-6.49v-51.71l2.11.81-22.24,32.23h-.33l-22.16-32.23,2.03-.81v51.71h-6.49Z"/>
    <path class="cls-2" d="M960.9,248.98v-28.09l-21.19-32.39h7.22l18.51,28.17h-2.6l18.43-28.17h7.22l-21.1,32.39v28.09h-6.49Z"/>
  </g>
</svg>